<?xml version="1.0" encoding="iso-8859-1"?>
<!-- Generator: Adobe Illustrator 19.0.0, SVG Export Plug-In . SVG Version: 6.00 Build 0)  -->
<svg version="1.1" id="Capa_1" xmlns="http://www.w3.org/2000/svg" xmlns:xlink="http://www.w3.org/1999/xlink" x="0px" y="0px"
	 viewBox="0 0 512.018 512.018" style="enable-background:new 0 0 512.018 512.018;" xml:space="preserve">
<g>
	<g>
		<path d="M509.315,298.88c-6.344-16.753-16.99-31.54-30.865-42.871c13.89-11.345,24.549-26.145,30.908-42.914
			c4.549-13.018,3.051-27.387-4.087-39.185l-9.071-15.761c-5.493-9.576-14.1-16.981-24.388-20.983
			c-1.994-0.731-4.042-1.302-6.127-1.707c0.682-1.982,1.198-4.017,1.545-6.084c0.421-2.381,0.638-4.793,0.648-7.211
			c-0.079-8.584-2.409-16.996-6.758-24.397l-9.097-15.65c-6.665-12.1-18.419-20.561-32.008-23.04
			c-0.138-0.026-0.278-0.043-0.418-0.051c-17.614-2.911-35.685-1.11-52.378,5.222c-2.943-17.701-10.505-34.311-21.922-48.154
			c-9.009-10.457-22.211-16.354-36.011-16.085h-18.227c-11.053-0.127-21.81,3.572-30.447,10.47c-1.661,1.418-3.2,2.974-4.599,4.651
			c-1.399-1.677-2.938-3.233-4.599-4.651c-8.637-6.898-19.394-10.597-30.447-10.47h-18.227c-13.805-0.263-27.009,5.64-36.019,16.102
			c-11.422,13.839-18.982,30.451-21.914,48.154c-16.845-6.255-35.022-8.039-52.762-5.18c-13.588,2.479-25.339,10.94-32,23.04
			l-9.071,15.582c-4.439,7.428-6.797,15.914-6.827,24.568c-0.023,2.398,0.16,4.793,0.546,7.159c0.38,2.052,0.917,4.071,1.604,6.042
			c-2.078,0.407-4.121,0.978-6.11,1.707c-10.296,4.019-18.906,11.442-24.397,21.035l-9.088,15.667
			c-7.13,11.83-8.597,26.228-4.002,39.253c6.355,16.752,17.006,31.537,30.882,42.871C19.698,267.357,9.047,282.161,2.7,298.931
			c-4.594,12.996-3.119,27.367,4.019,39.159l9.114,15.71c5.436,9.623,14.044,17.061,24.354,21.043
			c2.001,0.734,4.059,1.305,6.153,1.707c-0.704,2.002-1.249,4.056-1.63,6.144c-0.376,2.336-0.553,4.7-0.529,7.066
			c0.015,8.625,2.349,17.087,6.758,24.499l9.097,15.659c6.662,12.095,18.408,20.555,31.991,23.04
			c5.706,0.883,11.472,1.328,17.246,1.331c12.143,0.03,24.188-2.162,35.541-6.468c2.94,17.69,10.5,34.289,21.914,48.119
			c9.013,10.45,22.213,16.341,36.011,16.068h18.227c11.053,0.127,21.81-3.572,30.447-10.47c1.661-1.418,3.2-2.974,4.599-4.651
			c1.399,1.677,2.938,3.233,4.599,4.651c8.637,6.898,19.394,10.598,30.447,10.47h18.227c13.805,0.263,27.009-5.64,36.019-16.102
			c11.406-13.825,18.962-30.414,21.905-48.094c11.3,4.343,23.308,6.55,35.413,6.511c5.672-0.006,11.336-0.454,16.939-1.34
			c0.152-0.009,0.303-0.026,0.452-0.051c13.588-2.479,25.339-10.94,32-23.04l9.122-15.693c4.339-7.395,6.664-15.798,6.741-24.371
			c-0.01-2.391-0.221-4.778-0.631-7.134c-0.35-2.099-0.872-4.165-1.562-6.178c2.094-0.401,4.151-0.972,6.153-1.707
			c10.31-3.982,18.918-11.42,24.354-21.043l9.114-15.71C512.445,326.259,513.917,311.88,509.315,298.88z M368.123,82.33
			c15.36-7.075,32.513-9.299,49.169-6.374l0.486,0.06c8.314,1.838,15.423,7.189,19.49,14.669l9.096,15.642
			c2.84,4.807,4.375,10.272,4.454,15.855c-0.012,1.48-0.152,2.956-0.418,4.412c-0.652,4.314-2.781,8.269-6.025,11.187
			c-0.927,0.383-1.831,0.822-2.705,1.314l-4.352,2.475c-1.968,1.119-3.411,2.974-4.012,5.157c-0.6,2.183-0.308,4.515,0.812,6.483
			c0,0.077,0.128,0.12,0.171,0.196c0.043,0.077,0.06,0.282,0.137,0.418c1.119,1.968,2.974,3.411,5.157,4.012
			c2.183,0.6,4.515,0.308,6.483-0.812l4.523-2.56c0.98-0.596,1.925-1.245,2.833-1.946c4.127-1.133,8.51-0.9,12.493,0.666
			c6.558,2.658,12.036,7.438,15.556,13.577l9.02,15.684c4.52,7.345,5.599,16.3,2.953,24.508
			c-5.351,14.211-14.408,26.73-26.232,36.258c-1.229,0.998-2.739,1.911-4.122,2.867c-10.607-5.607-22.197-9.113-34.133-10.325
			c-38.358-3.707-77.071,0.042-114.005,11.042c-0.69-4.495-1.895-8.896-3.593-13.116l56.32-32.427
			c4.086-2.356,5.488-7.579,3.132-11.665c-2.356-4.086-7.579-5.488-11.665-3.132l-56.439,32.427c-2.7-3.412-5.765-6.52-9.139-9.267
			c27.938-26.283,50.506-57.742,66.449-92.629C364.944,106.069,367.698,94.298,368.123,82.33z M298.678,256.009
			c0,23.564-19.103,42.667-42.667,42.667s-42.667-19.103-42.667-42.667c0.028-23.552,19.114-42.638,42.667-42.667
			C279.576,213.342,298.678,232.445,298.678,256.009z M160.703,77.875c0.472-18.697,7.267-36.683,19.277-51.021
			c5.793-6.429,14.108-10.002,22.758-9.779h18.227c7.101-0.101,14.025,2.222,19.627,6.588c3.585,2.799,6.032,6.805,6.886,11.273
			c-0.077,0.896-0.316,1.766-0.316,2.671v5.009c0,4.713,3.82,8.533,8.533,8.533c0.111,0,0.213-0.06,0.324-0.068
			c0.111-0.009,0.213,0.068,0.324,0.068c4.713,0,8.533-3.82,8.533-8.533v-5.009c0-0.904-0.239-1.775-0.316-2.671
			c0.856-4.469,3.306-8.475,6.895-11.273c5.595-4.36,12.509-6.683,19.601-6.588h18.227c8.665-0.274,17.005,3.311,22.767,9.788
			c19.876,22.963,24.737,55.326,12.484,83.115c-15.228,33.3-36.845,63.287-63.625,88.26c-0.797,0.755-1.438,1.66-1.886,2.662
			c-4.64-1.923-9.506-3.247-14.481-3.942v-68.949c0-4.713-3.82-8.533-8.533-8.533s-8.533,3.82-8.533,8.533v68.949
			c-4.983,0.693-9.858,2.018-14.507,3.942c-0.448-1.002-1.089-1.907-1.886-2.662c-26.78-24.973-48.397-54.96-63.625-88.26
			c-4.583-10.05-6.891-20.989-6.758-32.034V77.875z M18.632,206.959c-2.7-8.192-1.664-17.156,2.833-24.516l9.114-15.676
			c3.476-6.163,8.948-10.957,15.514-13.594c4.182-1.642,8.803-1.79,13.082-0.418c0.853,0.597,1.562,1.229,2.483,1.784L66,157.005
			c1.97,1.128,4.308,1.424,6.497,0.824c2.189-0.601,4.049-2.049,5.168-4.024c0.068-0.128,0.068-0.273,0.137-0.41
			c0.068-0.137,0.12-0.119,0.171-0.196c1.12-1.968,1.412-4.3,0.812-6.483c-0.6-2.183-2.043-4.038-4.012-5.157l-4.19-2.381
			c-0.92-0.511-1.872-0.962-2.85-1.348c-3.288-2.941-5.464-6.925-6.161-11.281c-0.216-1.412-0.316-2.839-0.299-4.267
			c0.044-5.607,1.575-11.102,4.437-15.923l9.122-15.684c4.102-7.582,11.34-12.969,19.78-14.72c16.684-2.82,33.829-0.591,49.237,6.4
			c0.422,11.977,3.175,23.757,8.107,34.679c15.943,34.888,38.511,66.346,66.449,92.629c-3.375,2.747-6.439,5.855-9.139,9.267
			l-56.439-32.427c-4.086-2.356-9.309-0.954-11.665,3.132c-2.356,4.086-0.954,9.309,3.132,11.665l56.32,32.427
			c-1.697,4.219-2.903,8.62-3.593,13.116c-36.936-10.991-75.647-14.74-114.005-11.042c-11.934,1.211-23.524,4.711-34.133,10.308
			c-1.331-1.033-2.842-1.937-4.13-2.987C32.978,233.612,23.96,221.126,18.632,206.959z M143.867,429.705
			c-15.426,6.972-32.581,9.186-49.271,6.357c-8.445-1.751-15.688-7.137-19.797-14.72l-9.148-15.744
			c-2.843-4.803-4.363-10.274-4.403-15.855c-0.018-1.399,0.076-2.797,0.282-4.181c0.716-4.373,2.898-8.372,6.187-11.341
			c0.922-0.418,1.843-0.853,2.722-1.331l4.361-2.5c4.085-2.347,5.495-7.562,3.149-11.648c-0.06-0.102-0.154-0.154-0.213-0.247
			c-0.06-0.094-0.043-0.196-0.094-0.282c-1.116-1.971-2.97-3.418-5.153-4.021c-2.183-0.603-4.517-0.314-6.487,0.804l-4.523,2.56
			c-0.946,0.577-1.86,1.204-2.739,1.877c-4.163,1.221-8.615,1.014-12.646-0.589c-6.571-2.636-12.046-7.434-15.522-13.602
			l-9.079-15.71c-4.509-7.333-5.555-16.281-2.859-24.457c10.125-28.713,35.83-49.068,66.099-52.343
			c36.563-3.532,73.463,0.112,108.629,10.726c1.126,0.332,2.308,0.428,3.473,0.282c0.625,4.784,1.829,9.475,3.584,13.969
			l-56.439,32.521c-2.662,1.513-4.309,4.337-4.316,7.399s1.628,5.893,4.283,7.418c2.655,1.525,5.924,1.511,8.566-0.038
			l56.363-32.427c2.796,3.626,6,6.919,9.549,9.813c-27.938,26.283-50.506,57.742-66.449,92.629
			C147.041,405.948,144.287,417.728,143.867,429.705z M332.044,485.163c-5.793,6.429-14.108,10.002-22.758,9.779h-18.227
			c-7.101,0.101-14.025-2.222-19.627-6.588c-3.585-2.799-6.032-6.805-6.886-11.273c0.077-0.853,0.316-1.766,0.316-2.671v-5.009
			c0-4.713-3.82-8.533-8.533-8.533c-0.111,0-0.213,0.06-0.324,0.068c-0.111,0.008-0.213-0.068-0.324-0.068
			c-4.713,0-8.533,3.82-8.533,8.533v5.009c0,0.905,0.239,1.775,0.316,2.671c-0.856,4.469-3.306,8.475-6.895,11.273
			c-5.602,4.365-12.525,6.689-19.627,6.588h-18.202c-8.665,0.274-17.005-3.311-22.767-9.788
			c-11.995-14.341-18.777-32.322-19.243-51.012v-0.068c-0.132-11.045,2.175-21.984,6.758-32.034
			c15.228-33.3,36.845-63.287,63.625-88.26c0.797-0.755,1.438-1.66,1.886-2.662c4.649,1.925,9.523,3.25,14.507,3.942v68.949
			c0,4.713,3.82,8.533,8.533,8.533s8.533-3.82,8.533-8.533v-68.949c4.983-0.693,9.858-2.018,14.507-3.942
			c0.448,1.002,1.089,1.907,1.886,2.662c26.78,24.973,48.397,54.96,63.625,88.26C356.828,429.842,351.943,462.21,332.044,485.163z
			 M490.533,329.558l-9.105,15.71c-3.474,6.154-8.939,10.942-15.497,13.577c-4.141,1.646-8.725,1.806-12.971,0.452
			c-0.822-0.652-1.676-1.262-2.56-1.826l-4.343-2.466c-1.968-1.12-4.3-1.412-6.483-0.812c-2.183,0.6-4.038,2.043-5.157,4.012
			c0,0.077,0,0.154-0.077,0.23c-0.077,0.077-0.196,0.179-0.264,0.307c-2.346,4.086-0.937,9.3,3.149,11.648l4.361,2.5
			c0.922,0.529,1.894,0.964,2.859,1.399c3.241,2.924,5.355,6.892,5.973,11.213c0.255,1.434,0.389,2.887,0.401,4.343
			c-0.077,5.57-1.606,11.023-4.437,15.821l-9.122,15.684c-4.057,7.465-11.146,12.808-19.439,14.652l-0.529,0.06
			c-16.643,2.893-33.773,0.649-49.109-6.434c-0.425-11.968-3.179-23.739-8.107-34.654c-15.943-34.888-38.511-66.346-66.449-92.629
			c3.549-2.894,6.753-6.187,9.549-9.813l56.32,32.469c2.642,1.549,5.911,1.563,8.566,0.038c2.655-1.525,4.29-4.356,4.283-7.418
			s-1.654-5.886-4.316-7.399l-56.439-32.521c1.755-4.494,2.958-9.185,3.584-13.969c1.165,0.146,2.347,0.05,3.473-0.282
			c35.166-10.614,72.067-14.257,108.629-10.726c30.28,3.277,55.994,23.638,66.125,52.361v0.026
			C496.089,313.284,495.04,322.227,490.533,329.558z"/>
	</g>
</g>
<g>
</g>
<g>
</g>
<g>
</g>
<g>
</g>
<g>
</g>
<g>
</g>
<g>
</g>
<g>
</g>
<g>
</g>
<g>
</g>
<g>
</g>
<g>
</g>
<g>
</g>
<g>
</g>
<g>
</g>
</svg>
