<?xml version="1.0" encoding="iso-8859-1"?>
<!-- Generator: Adobe Illustrator 19.0.0, SVG Export Plug-In . SVG Version: 6.00 Build 0)  -->
<svg version="1.1" id="Capa_1" xmlns="http://www.w3.org/2000/svg" xmlns:xlink="http://www.w3.org/1999/xlink" x="0px" y="0px"
	 viewBox="0 0 512.001 512.001" style="enable-background:new 0 0 512.001 512.001;" xml:space="preserve" fill="#fff">
<g>
	<g>
		<path d="M498.84,140.45l-31.823-31.823l31.823-31.823c5.858-5.859,5.858-15.356,0-21.215L456.41,13.16
			c-5.853-5.854-15.357-5.857-21.215,0l-31.824,31.823L371.549,13.16c-17.546-17.547-46.098-17.546-63.644,0l-12.413,12.413
			c-16.626-7.959-37.301-5.128-51.231,8.802L223.045,55.59c-5.854,5.852-5.859,15.357,0,21.215l74.253,74.252l-146.24,146.242
			l-74.253-74.253c-5.854-5.854-15.358-5.857-21.215,0L34.376,244.26c-13.829,13.828-16.75,34.488-8.783,51.213l-12.432,12.432
			c-17.547,17.547-17.547,46.098,0,63.645l31.823,31.823l-31.823,31.823c-5.859,5.858-5.859,15.356,0,21.215l42.429,42.43
			c5.854,5.854,15.358,5.857,21.215,0l31.823-31.823l31.824,31.824c17.546,17.545,46.097,17.545,63.644,0l12.414-12.413
			c16.626,7.959,37.301,5.128,51.231-8.802l21.216-21.215c5.853-5.854,5.858-15.357,0-21.215l-74.253-74.253l146.24-146.24
			l74.253,74.253c5.853,5.854,15.358,5.857,21.215,0l21.215-21.215c13.829-13.828,16.75-34.488,8.783-51.213l12.432-12.432
			C516.387,186.547,516.387,157.997,498.84,140.45z M445.804,44.983l21.215,21.215l-21.215,21.216l-21.216-21.215L445.804,44.983z
			 M66.198,467.017l-21.215-21.215l21.215-21.215l21.215,21.215L66.198,467.017z M182.88,477.624
			c-5.848,5.851-15.365,5.849-21.214,0.001l-127.29-127.29c-5.849-5.848-5.849-15.366,0-21.215l10.607-10.607l148.505,148.504
			L182.88,477.624z M257.133,445.804l-10.608,10.606c-5.864,5.864-15.351,5.864-21.215,0L55.591,286.691
			c-5.863-5.863-5.863-15.351,0-21.215l10.607-10.607C72.801,261.473,253.807,442.477,257.133,445.804z M193.488,339.728
			l-21.215-21.215l146.24-146.241l21.215,21.215L193.488,339.728z M456.41,246.525l-10.607,10.607L329.122,140.452l-0.001-0.001
			l-0.001-0.001L254.869,66.2l10.607-10.608c5.862-5.862,15.351-5.865,21.215,0l169.72,169.72
			C462.274,231.173,462.274,240.662,456.41,246.525z M477.625,182.88l-10.607,10.607L318.513,44.983l10.608-10.607
			c5.85-5.849,15.364-5.849,21.215,0l127.289,127.289C483.475,167.514,483.475,177.032,477.625,182.88z"/>
	</g>
</g>
<g>
</g>
<g>
</g>
<g>
</g>
<g>
</g>
<g>
</g>
<g>
</g>
<g>
</g>
<g>
</g>
<g>
</g>
<g>
</g>
<g>
</g>
<g>
</g>
<g>
</g>
<g>
</g>
<g>
</g>
</svg>
