<svg height="512pt" viewBox="-9 0 512 512.00045" width="512pt" xmlns="http://www.w3.org/2000/svg" fill="#fff"><path d="m398.328125 167.714844c1.664063 1.664062 3.839844 2.492187 6.015625 2.492187s4.355469-.832031 6.019531-2.492187l59.289063-59.289063c16.984375-16.988281 16.984375-44.632812 0-61.621093-16.988282-16.992188-44.636719-16.984376-61.621094 0l-3.6875 3.679687-3.679688-3.679687c-16.996093-16.988282-44.632812-16.988282-61.621093 0-8.230469 8.230468-12.765625 19.171874-12.765625 30.808593s4.535156 22.582031 12.765625 30.808594zm-47.25-108.875c5.179687-5.179688 11.976563-7.761719 18.773437-7.761719 6.796876 0 13.601563 2.585937 18.777344 7.761719l9.699219 9.703125c1.597656 1.59375 3.761719 2.492187 6.015625 2.492187 2.257812 0 4.421875-.898437 6.019531-2.492187l9.703125-9.703125c10.359375-10.363282 27.199219-10.351563 37.550782 0 10.351562 10.351562 10.351562 27.199218 0 37.550781l-53.273438 53.269531-53.265625-53.269531c-5.015625-5.015625-7.78125-11.6875-7.78125-18.773437.003906-7.09375 2.765625-13.765626 7.78125-18.777344zm0 0"/><path d="m484.148438 493.652344c-72.746094 8.070312-130.4375-24.140625-131.015626-24.464844-1.957031-1.117188-4.277343-1.417969-6.453124-.820312-.917969.246093-92.421876 24.773437-166.121094 8.414062-45.945313-10.214844-89.28125-42.578125-120.925782-66.207031-4.25-3.171875-8.277343-6.183594-12.058593-8.945313-5.164063-3.777344-13.375-6.917968-20.613281-9.691406-3.25-1.242188-7.703126-2.949219-8.660157-3.546875-.828125-.648437-1.28125-1.601563-1.28125-2.691406v-19.726563c.410157-15.609375 65.855469-255.792968 76.003907-286.347656.25-.359375 1.226562-1.066406 1.945312-1.40625l129.515625-59.15625 41.871094 54.511719c2.066406 2.824219 1.871093 6.773437-.457031 9.378906l-41.375 46.382813c-2.707032 3.039062-7.265626 3.371093-10.09375 1.007812l-16.730469-15.425781c-1.960938-1.804688-4.75-2.402344-7.363281-1.921875-2.621094.46875-4.964844 2.335937-6.175782 4.710937-1.398437 2.753907-14.066406 6.128907-26.988281 6.226563l-4.210937-.425782c-3.375-.402343-6.648438 1.359376-8.296876 4.332032-1.65625 2.972656-1.375 6.644531.703126 9.339844 3.59375 4.644531 6.394531 8.375 7.980468 10.515624l8.28125 140.769532c-5.132812 19.992187-9.835937 25.671875-11.003906 26.808594-3.449219 1.089843-5.953125 4.3125-5.953125 8.117187 0 4.699219 3.8125 8.511719 8.511719 8.511719 9.652344 0 17.855468-12.683594 24.441406-37.445313 67.691406-50.648437 126.765625-2.847656 131.398438 1.085938 21.5 21.578125 22.832031 35.910156 22.875 36.546875.101562 4.609375 3.871093 8.320312 8.511718 8.320312 4.699219 0 8.511719-3.808594 8.511719-8.507812 0-1.957032-.710937-18.75-22.738281-43.011719 20.773437-25.539063 44.425781-40.25 70.476562-43.453125 44.914063-5.53125 82.667969 24.671875 83.046875 24.972656 3.648438 2.96875 9 2.421875 11.96875-1.21875 2.96875-3.636718 2.433594-8.988281-1.199219-11.960937-1.757812-1.433594-43.550781-35.054688-95.722656-28.707031-30.496094 3.699218-57.871094 20.191406-81.46875 49.058593-19.152344-13.023437-74.066406-42.5-135.480468-3.949219l-7.617188-129.457031c-.078125-1.398437-.507812-2.753906-1.238281-3.945312 7.617187-.902344 16.6875-2.890625 23.265625-7.21875l10.964844 10.105469c10.207031 8.566406 25.15625 7.5 34.039062-2.445313l41.375-46.386719c7.632812-8.550781 8.269531-21.480468 1.382812-30.910156l-46.125-60.050781c-2.40625-3.136719-6.664062-4.203125-10.285156-2.554688l-135.566406 61.921875c-1.417969.621094-8.609375 4.101563-10.972656 11.210938-4.820313 14.46875-77.027344 271.980468-77.027344 292.042968v19.757813c0 6.339844 2.847656 12.203125 7.804688 16.089844 2.480468 1.941406 6.1875 3.410156 13.074218 6.042969 5.625 2.15625 13.324219 5.097656 16.648438 7.53125 3.742187 2.734374 7.71875 5.707031 11.921875 8.847656 32.878906 24.554687 77.90625 58.179687 127.421875 69.183594 70.488281 15.664062 153.234375-3.273438 170.96875-7.742188 11.84375 6.121094 55.296875 26.34375 112.183594 26.34375 8.394531 0 17.085937-.4375 26.003906-1.433594 4.671875-.515625 8.035156-4.726562 7.519531-9.394531-.523437-4.679687-4.746094-8.070313-9.398437-7.519531zm0 0"/><path d="m442.484375 390.535156c-.46875-4.257812-4.074219-7.570312-8.460937-7.570312-4.699219 0-8.511719 3.8125-8.511719 8.511718 0 5.683594 4.199219 24.929688 58.175781 33.921876.472656.078124.945312.117187 1.40625.117187 4.085938 0 7.691406-2.949219 8.386719-7.109375.769531-4.636719-2.363281-9.019531-6.996094-9.796875-37.746094-6.289063-43.496094-16.941406-44-18.074219zm0 0"/><path d="m279.058594 434.214844c-111.464844 23.875-159.164063-52.390625-161.136719-55.644532-2.433594-4.019531-7.648437-5.3125-11.667969-2.898437-4.03125 2.417969-5.335937 7.644531-2.917968 11.675781.5625.933594 14.105468 23.164063 43.0625 42.101563 19.953124 13.042969 50.378906 26.332031 91.53125 26.332031 13.707031 0 28.601562-1.472656 44.691406-4.917969 4.597656-.984375 7.527344-5.511719 6.542968-10.105469-.988281-4.59375-5.507812-7.535156-10.105468-6.542968zm0 0"/></svg>