<svg height="512pt" viewBox="-31 0 512 512" width="512pt" xmlns="http://www.w3.org/2000/svg" fill="#fff"><path d="m435 0h-60c-8.285156 0-15 6.714844-15 15v182c0 19.1875 12.074219 35.597656 29.019531 42.058594-5.789062 35.640625-36.769531 62.941406-74.019531 62.941406h-15v-45c0-41.355469-33.644531-75-75-75s-75 33.644531-75 75 33.644531 75 75 75h45v45c0 57.898438-47.101562 105-105 105s-105-47.101562-105-105v-137.578125c17.460938-6.195313 30-22.867187 30-42.421875v-182c0-8.285156-6.714844-15-15-15h-60c-8.285156 0-15 6.714844-15 15v182c0 19.554688 12.539062 36.226562 30 42.421875v137.578125c0 74.4375 60.5625 135 135 135s135-60.5625 135-135v-45h15c53.605469 0 97.953125-40.382812 104.230469-92.320312 17.859375-5.96875 30.769531-22.839844 30.769531-42.679688v-182c0-8.285156-6.714844-15-15-15zm-390 212c-8.269531 0-15-6.730469-15-15s6.730469-15 15-15 15 6.730469 15 15-6.730469 15-15 15zm-15-120h30v62.578125c-4.695312-1.664063-9.742188-2.578125-15-2.578125s-10.304688.914062-15 2.578125zm30-62v32h-30v-32zm210 272h-45c-24.8125 0-45-20.1875-45-45s20.1875-45 45-45 45 20.1875 45 45zm120-210h30v62.578125c-4.695312-1.664063-9.742188-2.578125-15-2.578125s-10.304688.914062-15 2.578125zm30-62v32h-30v-32zm-15 182c-8.269531 0-15-6.730469-15-15s6.730469-15 15-15 15 6.730469 15 15-6.730469 15-15 15zm0 0"/></svg>